<?xml version="1.0" encoding="UTF-8" standalone="no"?>
<svg width="160px" height="61px" viewBox="0 0 160 61" version="1.1" xmlns="http://www.w3.org/2000/svg" xmlns:xlink="http://www.w3.org/1999/xlink">
    <!-- Generator: Sketch 40.3 (33839) - http://www.bohemiancoding.com/sketch -->
    <title>logo</title>
    <desc>Created with Sketch.</desc>
    <defs>
        <polygon id="path-1" points="0.360888889 21.0530973 20.8500471 21.0530973 20.8500471 0.260356637 0.360888889 0.260356637 0.360888889 21.0530973"></polygon>
        <polygon id="path-3" points="0.463622896 21.0530973 21.064835 21.0530973 21.064835 0.260356637 0.463622896 0.260356637"></polygon>
        <polygon id="path-5" points="20.6012121 28.0707965 0 28.0707965 0 14.0907571 0 0.110717699 20.6012121 0.110717699 20.6012121 28.0707965"></polygon>
    </defs>
    <g id="Page-1" stroke="none" stroke-width="1" fill="none" fill-rule="evenodd">
        <g id="Homepage-Visual-Design---photo@2x" transform="translate(-130.000000, -37.000000)">
            <g id="Header" transform="translate(130.000000, 30.000000)">
                <g id="logo" transform="translate(0.000000, 7.000000)">
                    <polygon id="Fill-1" fill="#FFFFFF" points="125.439354 36.0077062 119.094303 40.4596265 119.094303 45.6084584 125.439354 41.0318389"></polygon>
                    <polygon id="Fill-2" fill="#FFFFFF" points="119.094303 48.0403071 119.094303 60.2996876 125.439354 60.2996876 125.439354 43.4642274"></polygon>
                    <polygon id="Fill-3" fill="#FFFFFF" points="128.414061 33.5423345 128.414061 60.2997416 134.758572 60.2997416 134.758572 29.0828566"></polygon>
                    <polygon id="Fill-4" fill="#FFFFFF" points="138.008727 26.4339991 138.00765 60.362415 144.3527 60.362415 144.3527 22.0862646"></polygon>
                    <g id="Group-25" transform="translate(0.000000, 0.215389)">
                        <path d="M109.397764,39.6356947 C108.167865,39.6356947 107.086114,39.8462257 106.152512,40.2678274 C105.21837,40.6883496 104.206653,41.3669071 103.116822,42.3029602 L103.116822,28.850031 L97.0465185,28.850031 L97.0465185,60.0841903 L103.116822,60.0841903 L103.116822,50.9833142 C103.116822,48.8305 103.400727,47.2482788 103.969616,46.2339513 C104.537428,45.2196239 105.436013,44.7127301 106.665912,44.7127301 C107.6313,44.7127301 108.444229,45.1537655 109.105778,46.0347566 C109.767327,46.9162876 110.098101,48.004031 110.098101,49.2985265 L110.098101,60.0841903 L116.122613,60.0841903 L116.122613,48.2453319 C116.122613,45.5472965 115.526788,43.4376681 114.336215,41.9169867 C113.145643,40.3957655 111.499313,39.6356947 109.397764,39.6356947" id="Fill-5" fill="#FFFFFF"></path>
                        <path d="M84.7055084,40.1527372 L87.3134545,40.1527372 L87.3134545,43.0521265 C88.0892121,41.9071619 88.9091448,41.0612593 89.7721751,40.500923 C90.6352054,39.9476044 91.5354074,39.6674363 92.4668552,39.6674363 C93.174734,39.6674363 93.9257104,39.8914628 94.7267879,40.3395159 L93.3977643,42.4793743 C92.8638923,42.2494097 92.4172929,42.1311885 92.0504242,42.1311885 C91.2003232,42.1311885 90.3803906,42.4793743 89.5917037,43.1762858 C88.8035556,43.8731973 88.201266,44.9620204 87.7853737,46.4303389 C87.4686061,47.5564097 87.3134545,49.8398611 87.3134545,53.274215 L87.3134545,59.9750381 L84.7055084,59.9750381 L84.7055084,40.1527372 Z" id="Fill-7" fill="#81BD41"></path>
                        <g id="Group-11" transform="translate(60.875421, 39.407080)">
                            <mask id="mask-2" fill="white">
                                <use xlink:href="#path-1"></use>
                            </mask>
                            <g id="Clip-10"></g>
                            <path d="M18.0314613,13.9977726 L20.1798788,15.1303212 C19.472,16.5052504 18.658532,17.6189053 17.7335488,18.464808 C16.8080269,19.3047726 15.7715286,19.9520204 14.6165118,20.3935956 C13.455569,20.8351708 12.1513266,21.0532593 10.6924714,21.0532593 C7.45152862,21.0532593 4.92439057,19.9952062 3.09866667,17.8801796 C1.27348148,15.7646133 0.360888889,13.3753566 0.360888889,10.7129496 C0.360888889,8.20547168 1.13718519,5.96574602 2.68277441,4.00564867 C4.63886869,1.51112655 7.26513131,0.260356637 10.5497104,0.260356637 C13.9334141,0.260356637 16.6404848,1.54189646 18.658532,4.09903805 C20.0926061,5.90366637 20.825266,8.15580796 20.8500471,10.8619407 L2.9682963,10.8619407 C3.01839731,13.157808 3.75698316,15.0369319 5.17866667,16.4987726 C6.60681481,17.9670912 8.37004714,18.7012504 10.4629764,18.7012504 C11.4746936,18.7012504 12.4621684,18.5268876 13.4183973,18.1787018 C14.3740875,17.8299761 15.1875556,17.3700469 15.8582626,16.7913566 C16.5289697,16.2126664 17.255165,15.2857903 18.0314613,13.9977726 L18.0314613,13.9977726 Z M18.0562424,8.65946283 C17.7146936,7.29694956 17.2179933,6.21460442 16.5661414,5.39947168 C15.9078249,4.58433894 15.0447946,3.9311531 13.9705859,3.43343628 C12.8969158,2.93571947 11.7666801,2.68686106 10.5868822,2.68686106 C8.63078788,2.68686106 6.95482828,3.30927699 5.55146128,4.55950708 C4.52088889,5.47396726 3.75105724,6.83648053 3.22311111,8.65946283 L18.0562424,8.65946283 Z" id="Fill-9" fill="#81BD41" mask="url(#mask-2)"></path>
                        </g>
                        <polygon id="Fill-12" fill="#81BD41" points="46.5757306 32.5000982 49.1093333 32.5000982 49.1093333 48.1663018 58.3478519 40.1526292 62.0359327 40.1526292 51.145697 49.5973726 62.669468 59.9749301 59.0621953 59.9749301 49.1093333 51.0095496 49.1093333 59.9749301 46.5757306 59.9749301"></polygon>
                        <g id="Group-16" transform="translate(22.087542, 39.407080)">
                            <mask id="mask-4" fill="white">
                                <use xlink:href="#path-3"></use>
                            </mask>
                            <g id="Clip-15"></g>
                            <path d="M21.064835,0.745657522 L21.064835,20.5679584 L18.531771,20.5679584 L18.531771,17.1584363 C17.4634882,18.4588699 16.2712997,19.4354097 14.9428148,20.0826575 C13.6202559,20.7293655 12.1673266,21.0532593 10.5964175,21.0532593 C7.80261279,21.0532593 5.41230976,20.0389319 3.43143434,18.0108168 C1.45055892,15.9762239 0.463622896,13.5124717 0.463622896,10.6006664 C0.463622896,7.75741858 1.46294949,5.31849823 3.46268013,3.29632124 C5.45540741,1.27414425 7.85863973,0.260356637 10.6712997,0.260356637 C12.291771,0.260356637 13.7570909,0.602604425 15.0731852,1.2871 C16.3833535,1.97105575 17.5383704,3.00427699 18.531771,4.39162212 L18.531771,0.745657522 L21.064835,0.745657522 Z M10.8695488,2.72410885 C9.45379125,2.72410885 8.14416162,3.07229469 6.95197306,3.76920619 C5.75331987,4.46017965 4.80355556,5.43671947 4.09567677,6.69342743 C3.38779798,7.9501354 3.03385859,9.28187876 3.03385859,10.6881177 C3.03385859,12.0754628 3.38779798,13.4066664 4.10214141,14.6757903 C4.81594613,15.9449142 5.77217508,16.9344097 6.97675421,17.6372593 C8.18133333,18.3465867 9.47264646,18.7012504 10.8512323,18.7012504 C12.2357441,18.7012504 13.558303,18.3530646 14.8000539,17.6496752 C16.0482694,16.9468257 17.0044983,16.0010558 17.6746667,14.8004894 C18.3453737,13.6058611 18.6804579,12.2557637 18.6804579,10.7561354 C18.6804579,8.47268407 17.9294815,6.56279027 16.4205253,5.02591416 C14.9180337,3.48957788 13.0675286,2.72410885 10.8695488,2.72410885 L10.8695488,2.72410885 Z" id="Fill-14" fill="#81BD41" mask="url(#mask-4)"></path>
                        </g>
                        <g id="Group-19" transform="translate(0.000000, 32.389381)">
                            <mask id="mask-6" fill="white">
                                <use xlink:href="#path-5"></use>
                            </mask>
                            <g id="Clip-18"></g>
                            <path d="M0,27.5855496 L0,0.110717699 L2.53306397,0.110717699 L2.53306397,11.1976027 C3.6013468,9.8847531 4.79353535,8.9017354 6.11609428,8.25502743 C7.43811448,7.60184159 8.88511785,7.27794779 10.4560269,7.27794779 C13.2562963,7.27794779 15.6465993,8.29227522 17.6274747,10.3203903 C19.6078114,12.3549832 20.6012121,14.8122575 20.6012121,17.7116469 C20.6012121,20.5673106 19.6018855,23.0127088 17.6021549,25.0348858 C15.602963,27.056523 13.2002694,28.0708504 10.3876094,28.0708504 C8.77306397,28.0708504 7.31420875,27.7286027 6.0040404,27.0441071 C4.69387205,26.3601513 3.53885522,25.3269301 2.53306397,23.939585 L2.53306397,27.5855496 L0,27.5855496 Z M10.2012121,25.6070982 C11.6110438,25.6070982 12.9206734,25.2589124 14.112862,24.5679389 C15.3115152,23.8710274 16.2612795,22.8944876 16.9691582,21.6377796 C17.677037,20.3870097 18.0309764,19.0558062 18.0309764,17.6555053 C18.0309764,16.2557442 17.677037,14.9180628 16.9626936,13.6489389 C16.2488889,12.3862929 15.2926599,11.3967973 14.0880808,10.6874699 C12.8835017,9.98462035 11.5981145,9.62995664 10.2324579,9.62995664 C8.84794613,9.62995664 7.52538721,9.98462035 6.27124579,10.6874699 C5.0230303,11.3967973 4.06087542,12.3485053 3.39016835,13.5431336 C2.71946128,14.7377619 2.3843771,16.0819212 2.3843771,17.5810097 C2.3843771,19.8644611 3.13535354,21.7743549 4.64430976,23.3052929 C6.14680135,24.8416292 7.9973064,25.6070982 10.2012121,25.6070982 L10.2012121,25.6070982 Z" id="Fill-17" fill="#81BD41" mask="url(#mask-6)"></path>
                        </g>
                        <path d="M157.000512,6.0826177 C154.680242,2.9246531 151.614923,1.05092743 147.800242,0.490051327 C143.959165,-0.0751433628 140.489805,0.809086726 137.396471,3.1146708 C134.303138,5.42079469 132.465024,8.46917522 131.904754,12.2911221 C131.609535,14.3079009 131.685495,16.2215735 132.135865,18.0337593 L138.417886,13.3513345 L134.261657,7.75336991 L155.080512,7.72152035 L157.116337,6.24618407 C157.07701,6.19166195 157.040916,6.1366 157.000512,6.0826177" id="Fill-20" fill="#81BD41"></path>
                        <g id="Group-24" transform="translate(137.912458, 5.938053)" fill="#CCDC29">
                            <path d="M19.3210505,0.46899823 C21.5691313,3.67878584 22.3653603,7.18709558 21.6817239,10.989069 C20.9927003,14.8174938 19.0516902,17.8318655 15.8850909,20.035423 C12.7184916,22.2389805 9.24913131,23.0141664 5.45546128,22.329131 C3.45357576,21.9674496 1.66717845,21.2861929 0.0962693603,20.2805027 L6.52697643,15.8053699 L10.4984242,21.5355912 L17.1683232,1.78346726 L19.2030707,0.307051327 C19.2418586,0.361573451 19.2828013,0.41339646 19.3210505,0.46899823" id="Fill-22"></path>
                        </g>
                    </g>
                </g>
            </g>
        </g>
    </g>
</svg>